# xmcd
#
# Track frame offsets:
#	150
#	17247
#	33380
#	49300
#	67750
#	84430
#	104117
#	118357
#	133595
#	149127
#	167117
#
# Disc length: 2576 seconds
#
# Revision: 3
# Processed by: cddbd v1.5.2PL0 Copyright (c) Steve Scherf et al.
# Submitted via: EasyCDDAExtractor 16.0.1.1
#
DISCID=a50a0e0b
DTITLE=Billy Ray Cyrus - The Other Side
DYEAR=2003
DGENRE=Country
TTITLE0=Face Of God
TTITLE1=Wouldn't You Do This For Me ?
TTITLE2=Always Sixteen
TTITLE3=I Need You Now
TTITLE4=Love Has No Walls
TTITLE5=Tip Of My Heart
TTITLE6=Did I Forget To Pray
TTITLE7=Holding On To A Dream
TTITLE8=I Love You This Much
TTITLE9=The Other Side
TTITLE10=Amazing Grace
EXTD=
EXTT0=
EXTT1=
EXTT2=
EXTT3=
EXTT4=
EXTT5=
EXTT6=
EXTT7=
EXTT8=
EXTT9=
EXTT10=
PLAYORDER=
